<svg aria-hidden="true" style="position: absolute; width: 0; height: 0; overflow: hidden;" version="1.1" xmlns="http://www.w3.org/2000/svg" xmlns:xlink="http://www.w3.org/1999/xlink">
<defs>  

<symbol id="icon-language" viewBox="0 0 24 28">
<title>language</title>
<path d="M10.219 16.844c-0.031 0.109-0.797-0.25-1-0.328-0.203-0.094-1.125-0.609-1.359-0.766s-1.125-0.891-1.234-0.938v0c-0.562 0.859-1.281 1.875-2.094 2.828-0.281 0.328-1.125 1.391-1.641 1.719-0.078 0.047-0.531 0.094-0.594 0.063 0.25-0.187 0.969-1.078 1.281-1.437 0.391-0.453 2.25-3.047 2.562-3.641 0.328-0.594 1.312-2.562 1.359-2.75-0.156-0.016-1.391 0.406-1.719 0.516-0.313 0.094-1.172 0.297-1.234 0.344-0.063 0.063-0.016 0.25-0.047 0.313s-0.313 0.203-0.484 0.234c-0.156 0.047-0.516 0.063-0.734 0-0.203-0.047-0.391-0.25-0.438-0.328 0 0-0.063-0.094-0.078-0.359 0.187-0.063 0.5-0.078 0.844-0.172s1.188-0.344 1.641-0.5 1.328-0.484 1.594-0.547c0.281-0.047 0.984-0.516 1.359-0.641s0.641-0.281 0.656-0.203 0 0.422-0.016 0.516c-0.016 0.078-0.766 1.547-0.875 1.781-0.063 0.125-0.5 0.953-1.203 2.047 0.25 0.109 0.781 0.328 1 0.438 0.266 0.125 2.125 0.906 2.219 0.938s0.266 0.75 0.234 0.875zM7.016 9.25c0.047 0.266-0.031 0.375-0.063 0.438-0.156 0.297-0.547 0.5-0.781 0.594s-0.625 0.187-0.938 0.187c-0.141-0.016-0.422-0.063-0.766-0.406-0.187-0.203-0.328-0.75-0.266-0.688s0.516 0.125 0.719 0.078 0.688-0.187 0.906-0.25c0.234-0.078 0.703-0.203 0.859-0.219 0.156 0 0.281 0.063 0.328 0.266zM17.922 11.266l0.984 3.547-2.172-0.656zM0.609 23.766l10.844-3.625v-16.125l-10.844 3.641v16.109zM20 18.813l1.594 0.484-2.828-10.266-1.563-0.484-3.375 8.375 1.594 0.484 0.703-1.719 3.297 1.016zM12.141 3.781l8.953 2.875v-5.938zM17 24.453l2.469 0.203-0.844 2.5-0.625-1.031c-1.266 0.812-2.828 1.437-4.312 1.687-0.453 0.094-0.969 0.187-1.422 0.187h-1.313c-1.656 0-4.672-0.984-5.984-1.937-0.094-0.078-0.125-0.141-0.125-0.25 0-0.172 0.125-0.297 0.281-0.297 0.141 0 0.875 0.453 1.078 0.547 1.406 0.703 3.375 1.344 4.953 1.344 1.953 0 3.281-0.25 5.063-1.016 0.516-0.234 0.969-0.531 1.453-0.797zM24 7.594v16.859c-12.078-3.844-12.094-3.844-12.094-3.844-0.25 0.109-11.453 3.891-11.609 3.891-0.125 0-0.234-0.078-0.281-0.203 0-0.016-0.016-0.031-0.016-0.047v-16.844c0.016-0.047 0.031-0.125 0.063-0.156 0.094-0.109 0.219-0.141 0.313-0.172 0.047-0.016 1-0.328 2.328-0.781v-6l8.719 3.094c0.109-0.031 9.828-3.391 9.969-3.391 0.172 0 0.313 0.125 0.313 0.328v6.531z"></path>
</symbol>

<symbol id="icon-play" viewBox="0 0 28 32">
<title>play</title>
<path d="M24.876 11.161c-0.149-0.096-0.331-0.152-0.526-0.152-0.354 0-0.665 0.187-0.839 0.468l-0.002 0.004c-0.092 0.15-0.146 0.332-0.146 0.527 0 0.357 0.184 0.672 0.462 0.854l0.004 0.002c1.043 0.675 1.723 1.832 1.723 3.148s-0.68 2.474-1.708 3.14l-0.015 0.009-16.244 10.264c-0.548 0.357-1.219 0.569-1.94 0.569-0.655 0-1.27-0.176-1.799-0.483l0.017 0.009c-1.132-0.64-1.883-1.835-1.883-3.206 0-0.014 0-0.028 0-0.041l-0 0.002v-20.516c-0-0.012-0-0.026-0-0.040 0-1.371 0.751-2.566 1.865-3.196l0.018-0.010c0.512-0.298 1.126-0.473 1.782-0.473 0.721 0 1.391 0.212 1.954 0.578l-0.014-0.008 9.45 5.973c0.149 0.096 0.331 0.153 0.527 0.153 0.355 0 0.666-0.188 0.839-0.469l0.002-0.004c0.096-0.151 0.152-0.334 0.152-0.531 0-0.357-0.187-0.671-0.468-0.848l-0.004-0.002-9.45-5.973c-0.844-0.55-1.877-0.877-2.986-0.877-1.009 0-1.955 0.271-2.769 0.744l0.026-0.014c-1.745 0.985-2.904 2.828-2.904 4.941 0 0.020 0 0.041 0 0.061l-0-0.003v20.516c-0 0.017-0 0.038-0 0.059 0 2.113 1.159 3.955 2.876 4.925l0.028 0.015c0.788 0.459 1.734 0.73 2.743 0.73 1.109 0 2.142-0.327 3.007-0.89l-0.021 0.013 16.244-10.26c1.609-1.039 2.658-2.823 2.658-4.853s-1.050-3.813-2.636-4.839l-0.023-0.014z"></path>
</symbol>

<symbol id="icon-iphone" viewBox="0 0 18 32">
<title>iphone</title>
<path d="M16.080 0h-13.697c-0.006-0-0.013-0-0.020-0-1.289 0-2.336 1.039-2.349 2.325v27.349c0.013 1.288 1.060 2.326 2.349 2.326 0.007 0 0.014-0 0.021-0h13.696c0.006 0 0.012 0 0.019 0 1.289 0 2.336-1.039 2.349-2.325v-27.349c-0.013-1.288-1.060-2.326-2.349-2.326-0.007 0-0.013 0-0.020 0h0.001zM5.851 1.415h6.769c0.187 0.073 0.317 0.251 0.317 0.46 0 0.033-0.003 0.066-0.010 0.097l0.001-0.003c0.007 0.032 0.011 0.068 0.011 0.105 0 0.21-0.131 0.389-0.316 0.46l-0.003 0.001h-6.769c-0.188-0.072-0.319-0.251-0.319-0.461 0-0.037 0.004-0.074 0.012-0.109l-0.001 0.003c-0.006-0.028-0.009-0.061-0.009-0.094 0-0.209 0.13-0.387 0.313-0.459l0.003-0.001zM9.232 29.698c-0.807-0.015-1.456-0.673-1.456-1.483 0-0.819 0.664-1.483 1.483-1.483 0.817 0 1.479 0.66 1.483 1.476v0c-0.007 0.824-0.677 1.489-1.502 1.489-0.003 0-0.007 0-0.010-0h0.001zM16.673 24.603h-14.884v-20.677h14.884v20.677z"></path>
</symbol>

<symbol id="icon-phone" viewBox="0 0 32 32">
<title>phone</title>
<path d="M23.467 19.2c-2.134 2.129-2.134 4.271-4.267 4.271s-4.267-2.143-6.4-4.271-4.267-4.271-4.267-6.4 2.134-2.129 4.267-4.271-4.267-8.529-6.4-8.529-6.4 6.4-6.4 6.4c0 4.271 4.384 12.911 8.533 17.071s12.8 8.529 17.067 8.529c0 0 6.4-4.271 6.4-6.4s-6.4-8.529-8.533-6.4z"></path>
</symbol>

<symbol id="icon-view_2" viewBox="0 0 33 32">
<title>view_2</title>
<path d="M0-0.013h33.333v8.013h-33.333v-8.013zM0 12h33.333v8h-33.333v-8zM0 24h33.333v8.013h-33.333v-8.013z"></path>
</symbol>

<symbol id="icon-view_1" viewBox="0 0 32 32">
<title>view_1</title>
<path d="M13.867 12.8c0 0.589-0.478 1.067-1.067 1.067h-11.733c-0.589 0-1.067-0.478-1.067-1.067v0-11.733c0-0.589 0.478-1.067 1.067-1.067v0h11.733c0.589 0 1.067 0.478 1.067 1.067v0 11.733zM32 12.8c0 0.589-0.478 1.067-1.067 1.067h-11.733c-0.589 0-1.067-0.478-1.067-1.067v0-11.733c0-0.589 0.478-1.067 1.067-1.067v0h11.733c0.589 0 1.067 0.478 1.067 1.067v0 11.733zM13.867 30.933c0 0.589-0.478 1.067-1.067 1.067h-11.733c-0.589 0-1.067-0.478-1.067-1.067v0-11.733c0-0.589 0.478-1.067 1.067-1.067v0h11.733c0.589 0 1.067 0.478 1.067 1.067v0 11.733zM32 30.933c0 0.589-0.478 1.067-1.067 1.067h-11.733c-0.589 0-1.067-0.478-1.067-1.067v0-11.733c0-0.589 0.478-1.067 1.067-1.067v0h11.733c0.589 0 1.067 0.478 1.067 1.067v0 11.733z"></path>
</symbol>

<symbol id="icon-plus" viewBox="0 0 32 32">
<title>plus</title>
<path  d="M30.24 1.757c-1.054-1.086-2.527-1.761-4.157-1.761-0.029 0-0.058 0-0.087 0.001l0.004-0h-20c-3.313 0.005-5.996 2.69-6 6.003v20c0.009 3.31 2.69 5.991 5.999 6h20.004c3.309-0.011 5.988-2.691 5.997-5.999v-20.001c0-0.026 0.001-0.056 0.001-0.087 0-1.63-0.674-3.103-1.759-4.155l-0.002-0.001zM26.666 17.334c-0.011 0.733-0.602 1.324-1.333 1.334h-6.663v6.666c-0.011 0.733-0.602 1.324-1.333 1.334h-2.67c-0.733-0.011-1.324-0.602-1.334-1.333v-6.667h-6.666c-0.733-0.011-1.324-0.602-1.334-1.333v-2.67c0.009-0.733 0.601-1.324 1.334-1.331h6.669v-6.669c0.011-0.733 0.602-1.324 1.333-1.334h2.667c0.733 0.011 1.324 0.602 1.334 1.333v6.67h6.669c0.733 0.007 1.325 0.598 1.334 1.33v2.67z"></path>
</symbol>

<symbol id="icon-caret" viewBox="0 0 29 32">
<title>caret</title>
<path d="M10.886 24.616c-0.019-0-0.041-0.001-0.064-0.001-2.039 0-3.693 1.653-3.693 3.693s1.653 3.693 3.693 3.693c2.039 0 3.693-1.653 3.693-3.693 0-0 0-0 0-0v0c0.001-0.028 0.001-0.062 0.001-0.096 0-1.986-1.61-3.597-3.597-3.597-0.012 0-0.023 0-0.035 0h0.002zM10.886 30.031c-0.010 0-0.022 0-0.034 0-0.952 0-1.724-0.772-1.724-1.724s0.772-1.724 1.724-1.724c0.952 0 1.724 0.772 1.724 1.724 0 0 0 0 0 0v-0c0.001 0.015 0.001 0.034 0.001 0.052 0 0.923-0.748 1.671-1.671 1.671-0.007 0-0.014-0-0.020-0h0.001zM22.982 24.616c-0.019-0-0.041-0.001-0.064-0.001-2.039 0-3.693 1.653-3.693 3.693s1.653 3.693 3.693 3.693c2.039 0 3.693-1.653 3.693-3.693 0-0 0-0 0-0v0c0.001-0.030 0.001-0.064 0.001-0.099 0-1.984-1.609-3.593-3.593-3.593-0.013 0-0.026 0-0.039 0l0.002-0zM22.982 30.031c-0.010 0-0.022 0-0.034 0-0.952 0-1.724-0.772-1.724-1.724s0.772-1.724 1.724-1.724c0.952 0 1.724 0.772 1.724 1.724 0 0 0 0 0 0v-0c0.001 0.017 0.001 0.036 0.001 0.056 0 0.921-0.746 1.667-1.667 1.667-0.008 0-0.016-0-0.025-0h0.001zM27.578 4.923h-20.685l-2.054-4.923h-4.838v2.461h3.264l5.082 12.554c-1.37 0.564-2.317 1.889-2.317 3.435 0 2.046 1.658 3.704 3.704 3.704 0.023 0 0.046-0 0.069-0.001l-0.003 0h16.813v-2.461h-16.934c-0.68 0-1.231-0.551-1.231-1.231s0.551-1.231 1.231-1.231v0h15.962c0.013 0.001 0.029 0.001 0.045 0.001 0.583 0 1.067-0.423 1.163-0.978l0.001-0.007 1.939-9.846c0.009-0.056 0.013-0.12 0.013-0.186 0-0.69-0.54-1.253-1.22-1.291l-0.003-0z"></path>
</symbol>

<symbol id="icon-search" viewBox="0 0 20 20">
<title>search</title>
<path d="M12.9 14.32c-1.34 1.049-3.050 1.682-4.908 1.682-4.418 0-8-3.582-8-8s3.582-8 8-8c4.418 0 8 3.582 8 8 0 1.858-0.633 3.567-1.695 4.925l0.013-0.018 5.35 5.33-1.42 1.42-5.33-5.34zM8 14c3.314 0 6-2.686 6-6s-2.686-6-6-6v0c-3.314 0-6 2.686-6 6s2.686 6 6 6v0z"></path>
</symbol>

<symbol id="icon-close" viewBox="0 0 20 20">
<title>close</title>
<path d="M14.348 14.849c-0.469 0.469-1.229 0.469-1.697 0l-2.651-3.030-2.651 3.029c-0.469 0.469-1.229 0.469-1.697 0-0.469-0.469-0.469-1.229 0-1.697l2.758-3.15-2.759-3.152c-0.469-0.469-0.469-1.228 0-1.697s1.228-0.469 1.697 0l2.652 3.031 2.651-3.031c0.469-0.469 1.228-0.469 1.697 0s0.469 1.229 0 1.697l-2.758 3.152 2.758 3.15c0.469 0.469 0.469 1.229 0 1.698z"></path>
</symbol>

<symbol id="icon-location" viewBox="0 0 20 20">
<title>location</title>
<path d="M19.367 18.102l-1.367-4.102h-1.5l0.833 4h-14.666l0.833-4h-1.5l-1.368 4.102c-0.347 1.044 0.268 1.898 1.368 1.898h16c1.1 0 1.715-0.854 1.367-1.898zM15 5c0-2.761-2.238-5-5-5s-5 2.239-5 5c0 4.775 5 10 5 10s5-5.225 5-10zM7.3 5.060c0-1.491 1.208-2.699 2.7-2.699s2.7 1.208 2.7 2.699c0 1.492-1.209 2.7-2.7 2.7s-2.7-1.209-2.7-2.7z"></path>
</symbol>

<symbol id="icon-facebook2" viewBox="0 0 32 32">
<title>facebook2</title>
<path d="M29 0h-26c-1.65 0-3 1.35-3 3v26c0 1.65 1.35 3 3 3h13v-14h-4v-4h4v-2c0-3.306 2.694-6 6-6h4v4h-4c-1.1 0-2 0.9-2 2v2h6l-1 4h-5v14h9c1.65 0 3-1.35 3-3v-26c0-1.65-1.35-3-3-3z"></path>
</symbol>

<symbol id="icon-youtube" viewBox="0 0 32 32">
<title>youtube</title>
<path d="M31.681 9.6c0 0-0.313-2.206-1.275-3.175-1.219-1.275-2.581-1.281-3.206-1.356-4.475-0.325-11.194-0.325-11.194-0.325h-0.012c0 0-6.719 0-11.194 0.325-0.625 0.075-1.987 0.081-3.206 1.356-0.963 0.969-1.269 3.175-1.269 3.175s-0.319 2.588-0.319 5.181v2.425c0 2.587 0.319 5.181 0.319 5.181s0.313 2.206 1.269 3.175c1.219 1.275 2.819 1.231 3.531 1.369 2.563 0.244 10.881 0.319 10.881 0.319s6.725-0.012 11.2-0.331c0.625-0.075 1.988-0.081 3.206-1.356 0.962-0.969 1.275-3.175 1.275-3.175s0.319-2.587 0.319-5.181v-2.425c-0.006-2.588-0.325-5.181-0.325-5.181zM12.694 20.15v-8.994l8.644 4.513-8.644 4.481z"></path>
</symbol>

</defs>
</svg>
