<!-- Generated by IcoMoon.io -->
<svg version="1.1" xmlns="http://www.w3.org/2000/svg" width="29" height="32" viewBox="0 0 29 32">
<title>caret</title>
<path fill="#ff5757" d="M10.886 24.616c-0.019-0-0.041-0.001-0.064-0.001-2.039 0-3.693 1.653-3.693 3.693s1.653 3.693 3.693 3.693c2.039 0 3.693-1.653 3.693-3.693 0-0 0-0 0-0v0c0.001-0.028 0.001-0.062 0.001-0.096 0-1.986-1.61-3.597-3.597-3.597-0.012 0-0.023 0-0.035 0h0.002zM10.886 30.031c-0.010 0-0.022 0-0.034 0-0.952 0-1.724-0.772-1.724-1.724s0.772-1.724 1.724-1.724c0.952 0 1.724 0.772 1.724 1.724 0 0 0 0 0 0v-0c0.001 0.015 0.001 0.034 0.001 0.052 0 0.923-0.748 1.671-1.671 1.671-0.007 0-0.014-0-0.020-0h0.001zM22.982 24.616c-0.019-0-0.041-0.001-0.064-0.001-2.039 0-3.693 1.653-3.693 3.693s1.653 3.693 3.693 3.693c2.039 0 3.693-1.653 3.693-3.693 0-0 0-0 0-0v0c0.001-0.030 0.001-0.064 0.001-0.099 0-1.984-1.609-3.593-3.593-3.593-0.013 0-0.026 0-0.039 0l0.002-0zM22.982 30.031c-0.010 0-0.022 0-0.034 0-0.952 0-1.724-0.772-1.724-1.724s0.772-1.724 1.724-1.724c0.952 0 1.724 0.772 1.724 1.724 0 0 0 0 0 0v-0c0.001 0.017 0.001 0.036 0.001 0.056 0 0.921-0.746 1.667-1.667 1.667-0.008 0-0.016-0-0.025-0h0.001zM27.578 4.923h-20.685l-2.054-4.923h-4.838v2.461h3.264l5.082 12.554c-1.37 0.564-2.317 1.889-2.317 3.435 0 2.046 1.658 3.704 3.704 3.704 0.023 0 0.046-0 0.069-0.001l-0.003 0h16.813v-2.461h-16.934c-0.68 0-1.231-0.551-1.231-1.231s0.551-1.231 1.231-1.231v0h15.962c0.013 0.001 0.029 0.001 0.045 0.001 0.583 0 1.067-0.423 1.163-0.978l0.001-0.007 1.939-9.846c0.009-0.056 0.013-0.12 0.013-0.186 0-0.69-0.54-1.253-1.22-1.291l-0.003-0z"></path>
</svg>
