<!-- Generated by IcoMoon.io -->
<svg version="1.1" xmlns="http://www.w3.org/2000/svg" width="18" height="32" viewBox="0 0 18 32">
<title>iphone</title>
<path fill="#fff" d="M16.080 0h-13.697c-0.006-0-0.013-0-0.020-0-1.289 0-2.336 1.039-2.349 2.325v27.349c0.013 1.288 1.060 2.326 2.349 2.326 0.007 0 0.014-0 0.021-0h13.696c0.006 0 0.012 0 0.019 0 1.289 0 2.336-1.039 2.349-2.325v-27.349c-0.013-1.288-1.060-2.326-2.349-2.326-0.007 0-0.013 0-0.020 0h0.001zM5.851 1.415h6.769c0.187 0.073 0.317 0.251 0.317 0.46 0 0.033-0.003 0.066-0.010 0.097l0.001-0.003c0.007 0.032 0.011 0.068 0.011 0.105 0 0.21-0.131 0.389-0.316 0.46l-0.003 0.001h-6.769c-0.188-0.072-0.319-0.251-0.319-0.461 0-0.037 0.004-0.074 0.012-0.109l-0.001 0.003c-0.006-0.028-0.009-0.061-0.009-0.094 0-0.209 0.13-0.387 0.313-0.459l0.003-0.001zM9.232 29.698c-0.807-0.015-1.456-0.673-1.456-1.483 0-0.819 0.664-1.483 1.483-1.483 0.817 0 1.479 0.66 1.483 1.476v0c-0.007 0.824-0.677 1.489-1.502 1.489-0.003 0-0.007 0-0.010-0h0.001zM16.673 24.603h-14.884v-20.677h14.884v20.677z"></path>
</svg>
