<svg width="8" height="6" viewBox="0 0 8 6" fill="none" xmlns="http://www.w3.org/2000/svg">
<path d="M7.02713 0.879856C7.30777 1.1605 7.30777 1.61552 7.02713 1.89616L3.2355 5.68778C2.95486 5.96843 2.49984 5.96843 2.2192 5.68778C1.93855 5.40714 1.93855 4.95212 2.2192 4.67148L6.01082 0.879856C6.29147 0.599211 6.74648 0.599211 7.02713 0.879856Z" fill="white"/>
<path d="M3.2355 5.68778C2.95486 5.96843 2.49984 5.96843 2.2192 5.68778L0.508335 3.97692C0.22769 3.69628 0.22769 3.24126 0.508335 2.96062C0.78898 2.67997 1.24399 2.67997 1.52464 2.96062L3.2355 4.67148C3.51615 4.95213 3.51615 5.40714 3.2355 5.68778Z" fill="white"/>
</svg>
