<!-- Generated by IcoMoon.io -->
<svg version="1.1" xmlns="http://www.w3.org/2000/svg" width="34" height="34" viewBox="0 0 34 34">
<title>play</title>
<path fill="#fff" d="M24.876 11.161c-0.149-0.096-0.331-0.152-0.526-0.152-0.354 0-0.665 0.187-0.839 0.468l-0.002 0.004c-0.092 0.15-0.146 0.332-0.146 0.527 0 0.357 0.184 0.672 0.462 0.854l0.004 0.002c1.043 0.675 1.723 1.832 1.723 3.148s-0.68 2.474-1.708 3.14l-0.015 0.009-16.244 10.264c-0.548 0.357-1.219 0.569-1.94 0.569-0.655 0-1.27-0.176-1.799-0.483l0.017 0.009c-1.132-0.64-1.883-1.835-1.883-3.206 0-0.014 0-0.028 0-0.041l-0 0.002v-20.516c-0-0.012-0-0.026-0-0.040 0-1.371 0.751-2.566 1.865-3.196l0.018-0.010c0.512-0.298 1.126-0.473 1.782-0.473 0.721 0 1.391 0.212 1.954 0.578l-0.014-0.008 9.45 5.973c0.149 0.096 0.331 0.153 0.527 0.153 0.355 0 0.666-0.188 0.839-0.469l0.002-0.004c0.096-0.151 0.152-0.334 0.152-0.531 0-0.357-0.187-0.671-0.468-0.848l-0.004-0.002-9.45-5.973c-0.844-0.55-1.877-0.877-2.986-0.877-1.009 0-1.955 0.271-2.769 0.744l0.026-0.014c-1.745 0.985-2.904 2.828-2.904 4.941 0 0.020 0 0.041 0 0.061l-0-0.003v20.516c-0 0.017-0 0.038-0 0.059 0 2.113 1.159 3.955 2.876 4.925l0.028 0.015c0.788 0.459 1.734 0.73 2.743 0.73 1.109 0 2.142-0.327 3.007-0.89l-0.021 0.013 16.244-10.26c1.609-1.039 2.658-2.823 2.658-4.853s-1.050-3.813-2.636-4.839l-0.023-0.014z"></path>
</svg>
