<!-- Generated by IcoMoon.io -->
<svg version="1.1" xmlns="http://www.w3.org/2000/svg" width="32" height="32" viewBox="0 32 32">
<title>plus</title>
<path fill="#727176" d="M30.24 1.757c-1.054-1.086-2.527-1.761-4.157-1.761-0.029 0-0.058 0-0.087 0.001l0.004-0h-20c-3.313 0.005-5.996 2.69-6 6.003v20c0.009 3.31 2.69 5.991 5.999 6h20.004c3.309-0.011 5.988-2.691 5.997-5.999v-20.001c0-0.026 0.001-0.056 0.001-0.087 0-1.63-0.674-3.103-1.759-4.155l-0.002-0.001zM26.666 17.334c-0.011 0.733-0.602 1.324-1.333 1.334h-6.663v6.666c-0.011 0.733-0.602 1.324-1.333 1.334h-2.67c-0.733-0.011-1.324-0.602-1.334-1.333v-6.667h-6.666c-0.733-0.011-1.324-0.602-1.334-1.333v-2.67c0.009-0.733 0.601-1.324 1.334-1.331h6.669v-6.669c0.011-0.733 0.602-1.324 1.333-1.334h2.667c0.733 0.011 1.324 0.602 1.334 1.333v6.67h6.669c0.733 0.007 1.325 0.598 1.334 1.33v2.67z"></path>
</svg>
